<svg xmlns:dc="http://purl.org/dc/elements/1.1/" xmlns:cc="http://creativecommons.org/ns#" xmlns:rdf="http://www.w3.org/1999/02/22-rdf-syntax-ns#" xmlns:svg="http://www.w3.org/2000/svg" xmlns="http://www.w3.org/2000/svg" xmlns:sodipodi="http://sodipodi.sourceforge.net/DTD/sodipodi-0.dtd" xmlns:inkscape="http://www.inkscape.org/namespaces/inkscape" version="1.1" inkscape:version="0.48.4 r9939" width="300" height="304"><style>.style0{fill:	#ffffff;}</style><metadata><rdf:RDF><cc:Work rdf:about=""><dc:format>image/svg+xml</dc:format><dc:type rdf:resource="http://purl.org/dc/dcmitype/StillImage"/><dc:title/></cc:Work></rdf:RDF></metadata><defs><inkscape:path-effect effect="skeletal" is_visible="true" pattern="M 0,5 C 0,2.24 2.24,0 5,0 7.76,0 10,2.24 10,5 10,7.76 7.76,10 5,10 2.24,10 0,7.76 0,5 z" copytype="single_stretched" prop_scale="1" scale_y_rel="false" spacing="0" normal_offset="0" tang_offset="0" prop_units="false" vertical_pattern="false" fuse_tolerance="0"/></defs><path d="M 132.32 295.17 C 32.6 280.37 -26.01 165.05 23.54 81.12 75.04 -6.12 185.76 -22.77 255.22 46.27 353.91 144.35 269.4 315.51 132.32 295.17 z m 35.62 -11.01 c 19.16 -2.2 37.74 -8.58 54.69 -18.77 7.49 -4.5 6.76 -5.17 -1.42 -1.3 -3.52 1.66 -7.74 3.03 -9.39 3.03 -1.65 0.01 -5.41 1.13 -8.35 2.5 -2.94 1.37 -6 2.49 -6.8 2.49 -0.8 0 -2.77 0.68 -4.37 1.51 -3.74 1.94 -24.72 6.49 -29.9 6.49 -2.18 0 -7.02 0.72 -10.77 1.59 -5.09 1.19 -9.09 1.42 -15.81 0.91 -10.69 -0.81 -10.97 0.15 -0.41 1.38 10.36 1.2 22.98 1.27 32.53 0.17 z m -5.62 -5.92 c 19.66 -2.8 26.82 -4.65 40.63 -10.52 3.37 -1.43 7.32 -2.6 8.78 -2.6 1.46 0 4.89 -1.13 7.62 -2.52 2.73 -1.38 4.97 -2.3 4.97 -2.03 0 0.27 2.36 -0.92 5.25 -2.65 2.89 -1.73 6.6 -3.82 8.25 -4.65 26.1 -13.19 53.26 -70.48 43.28 -91.29 -1.41 -2.95 -3.46 -7.65 -4.55 -10.44 -1.85 -4.74 -6.67 -12.02 -11.34 -17.14 -2.5 -2.73 -6.85 -16.44 -6.88 -21.63 -0.02 -4.64 -3.12 -17.18 -7.05 -28.52 -2.98 -8.6 -5.41 -12.5 -12.42 -19.94 -2.23 -2.36 -4.95 -5.76 -6.05 -7.54 -5.84 -9.47 -19.11 -20.65 -24.51 -20.67 -1.37 -0 -3.64 -0.61 -5.05 -1.34 -3.49 -1.82 -10.91 -2.91 -12.3 -1.81 -0.63 0.5 -3.39 1.18 -6.14 1.51 -9.18 1.12 -11.98 1.87 -14.07 3.77 -5.44 4.96 -25.25 6.04 -30.1 1.64 -1.8 -1.64 -2.91 -1.84 -6.5 -1.2 -2.38 0.42 -8.38 0.82 -13.33 0.89 -8.96 0.12 -16.11 2.2 -20.46 5.95 -0.85 0.73 -4.61 2.4 -8.37 3.71 -11.84 4.14 -25.67 20.41 -25.67 30.2 0 1.32 -1.12 5.5 -2.5 9.29 -1.38 3.79 -2.5 8.34 -2.5 10.1 0 1.76 -1.15 6.27 -2.57 10 -1.41 3.74 -2.83 7.7 -3.16 8.8 -1.18 3.98 -7.08 12.13 -13.37 18.5 -9.32 9.42 -16.54 25.01 -19.02 41.06 -3.36 21.69 23.85 64.79 53.12 84.14 28.57 18.89 46.89 22.5 86 16.93 z m -9.48 -7.94 c -0.18 -0.18 -5.28 -0.3 -11.32 -0.27 -7.55 0.05 -12.34 -0.42 -15.34 -1.49 -4.97 -1.77 -10.81 -3.14 -19.11 -4.48 C 44.48 253.99 15.06 178.73 53.73 127.62 c 7.01 -9.27 13.29 -22.66 15.6 -33.28 1.11 -5.11 2.8 -10.73 3.76 -12.5 1.64 -3.05 2.89 -4.61 11.23 -14.04 3.94 -4.46 10.08 -8.66 12.74 -8.7 0.97 -0.02 2.64 -0.69 3.71 -1.5 1.07 -0.81 3.07 -1.47 4.45 -1.47 1.38 0 4.12 -1.12 6.1 -2.49 3.98 -2.76 22.56 -3.78 37.12 -2.04 6.85 0.82 11.51 -0.31 20.87 -5.07 27.1 -13.76 71.4 13.31 78.75 48.11 2.79 13.24 3.16 16.02 3.22 24.28 0.06 8.88 1.6 14.09 4.84 16.35 15.3 10.72 23.8 46.69 15.67 66.39 -8.03 19.47 -15.88 30.33 -27.95 38.67 -5.16 3.57 -17.65 9.81 -19.62 9.81 -0.61 0 -5.49 2.4 -10.83 5.33 -8.8 4.83 -27.75 11.13 -36.75 12.22 -1.21 0.15 -3.9 0.83 -5.97 1.51 -3.36 1.11 -16.97 1.97 -17.81 1.13 z m 22.98 -4.7 c 5.5 -1.37 10.77 -2.49 11.72 -2.49 2.69 0 15.13 -4.4 19.79 -7 4.1 -2.29 14.21 -7.15 20 -9.61 27.51 -11.69 45.38 -37.53 46.26 -66.89 0.42 -14.12 -7.31 -32.01 -18.36 -42.5 -4.43 -4.2 -5.55 -8 -6.38 -21.58 -2.13 -35.11 -17.31 -58.33 -43.02 -65.77 -3.3 -0.96 -7.68 -2.24 -9.73 -2.84 -6.02 -1.78 -21.95 -0.33 -28.14 2.57 -8.03 3.76 -15.05 5.76 -18.23 5.2 -1.6 -0.28 -5.16 -0.92 -7.91 -1.41 -9.58 -1.72 -25.48 -0.44 -29.54 2.37 -1.96 1.36 -4.51 2.47 -5.67 2.47 -13.1 0 -30.85 18.37 -34.88 36.11 -2.91 12.79 -9.4 26.11 -19.51 40.05 -12.38 17.07 -18.68 54.76 -11.49 68.68 0.87 1.69 1.58 3.62 1.58 4.29 0 2.02 7.9 16.72 11.66 21.72 14.92 19.79 30.37 28.72 58.34 33.72 5.22 0.93 10.4 2.18 11.5 2.77 6.44 3.44 38.42 3.54 52 0.16 z m -34.52 -7.46 c -3.04 -0.39 -6.41 -1.17 -7.5 -1.74 -3.23 -1.67 -11.47 -3.29 -19.37 -3.8 -4.07 -0.26 -7.89 -0.87 -8.5 -1.35 -0.61 -0.48 -2.88 -1.45 -5.05 -2.14 -2.17 -0.7 -5.99 -2.53 -8.5 -4.08 -2.51 -1.54 -6.85 -4.17 -9.66 -5.84 -5.61 -3.34 -8.15 -5.81 -17.82 -17.34 -14.11 -16.8 -19.2 -33.03 -15.94 -50.73 0.86 -4.67 1.89 -10.3 2.29 -12.5 1.01 -5.61 5.05 -16.24 6.69 -17.61 0.75 -0.63 1.37 -1.61 1.37 -2.19 0 -0.58 0.75 -1.87 1.66 -2.88 0.91 -1.01 2.15 -2.68 2.75 -3.72 0.6 -1.04 2.73 -4.75 4.74 -8.24 2.01 -3.5 5.07 -10.86 6.81 -16.36 1.73 -5.5 3.62 -11.35 4.2 -13 0.58 -1.65 1.51 -5.13 2.07 -7.73 1.65 -7.6 25.25 -23.84 34.57 -23.79 1.26 0.01 3.74 -0.74 5.5 -1.67 4.65 -2.44 17.44 -2.22 25.35 0.44 8.9 2.99 19.59 0.93 22.65 -4.37 0.44 -0.76 1.71 -1.39 2.82 -1.39 1.11 0 2.78 -0.41 3.71 -0.91 2.44 -1.31 11.39 -2.14 12.63 -1.18 0.57 0.45 3.37 1.08 6.22 1.4 7.2 0.81 22.15 8.64 27.05 14.18 9.58 10.82 14.74 18.88 17.27 27.01 0.69 2.2 1.64 4.43 2.13 4.95 0.48 0.52 0.88 6.15 0.88 12.51 0 13.64 0.56 15.97 5.65 23.58 12.25 18.33 14.02 23.86 13.04 40.84 -0.32 5.57 -1.02 11.7 -1.57 13.62 -0.54 1.93 -1.75 6.28 -2.69 9.68 -3.12 11.29 -23.77 36.32 -29.96 36.32 -0.33 0 -2.94 1.08 -5.79 2.41 -18.42 8.54 -29.09 12.68 -36.19 14.02 -24.11 4.57 -31.35 5.17 -43.52 3.59 z m 25.02 -2.03 c 1.93 -0.47 8 -1.62 13.5 -2.56 9.51 -1.62 17.82 -3.92 20 -5.52 0.55 -0.4 6.76 -3.28 13.8 -6.39 18.33 -8.1 23.07 -11.93 36.4 -29.34 7.52 -9.83 12.23 -44.7 7.45 -55.19 -1.34 -2.94 -1.88 -3.84 -9.07 -15 -7.29 -11.31 -7.98 -13.58 -8.03 -26.48 -0.11 -28.51 -20.95 -53.9 -48.04 -58.56 -11.19 -1.92 -17.67 -0.93 -23 3.54 -6.82 5.7 -12.46 6.57 -22.08 3.38 -8.77 -2.91 -20.82 -2.9 -27.41 0.02 -2.62 1.16 -5.41 2.11 -6.21 2.11 -2.15 0 -22.41 10.86 -25.3 13.56 -2.56 2.4 -6 10.58 -6 14.28 0 1.14 -0.43 3.1 -0.95 4.37 -0.52 1.26 -2.6 6.8 -4.61 12.3 -4.16 11.38 -5.52 14.05 -12.43 24.5 -8.82 13.33 -10.47 17.87 -13.45 37 -1.32 8.5 -1.18 10.51 1.63 23.5 2.76 12.75 19.55 35.52 30.25 41.02 1.69 0.87 5.09 2.9 7.56 4.53 9.84 6.45 16.89 8.96 26.5 9.43 3.3 0.16 10.95 1.65 17 3.32 11.5 3.16 24.85 4.06 32.5 2.2 z m -45.5 -12.51 c -4.4 -0.81 -9.12 -1.97 -10.5 -2.58 -1.38 -0.6 -4.46 -1.76 -6.86 -2.58 -12.53 -4.26 -34.89 -21.84 -36.43 -28.64 -0.27 -1.21 -2.12 -6.63 -4.11 -12.06 -7.34 -20.05 -5.05 -38.82 7.22 -59.36 9.3 -15.56 10.85 -19.09 12.61 -28.81 3 -16.49 3.59 -18.78 5.67 -22.15 3.17 -5.13 15.34 -12.3 20.92 -12.33 0.81 -0 2.82 -0.72 4.47 -1.59 3.57 -1.89 15.5 -5.41 20.71 -6.11 2.82 -0.38 5.27 0.26 10.19 2.66 11.22 5.47 15.54 5.36 22.45 -0.56 6.51 -5.57 11.23 -6.34 25.15 -4.06 15.63 2.55 23.03 7.28 31.27 19.99 9.31 14.35 9.27 14.21 8.94 30.68 -0.3 15.23 0.24 18.04 6.34 32.5 14.05 33.32 3.67 74.74 -21.05 83.98 -2.75 1.03 -7.22 3.18 -9.94 4.78 -12.11 7.13 -14.38 7.44 -48.06 6.55 -2.75 -0.07 -10.85 0.16 -18 0.51 -9.57 0.48 -15.11 0.26 -21 -0.83 z m 31.5 -2.26 c 4.12 -0.41 9.75 -0.37 12.5 0.08 14 2.3 32.16 0.18 39.36 -4.6 2 -1.33 7.1 -3.9 11.33 -5.71 15.3 -6.56 23.19 -18.01 27.56 -39.99 2.25 -11.34 -1.77 -33.23 -8.95 -48.67 -3.29 -7.08 -4.61 -14.8 -3.96 -23.15 1.3 -16.64 0.73 -18.75 -8.95 -33.19 -5.01 -7.47 -11.31 -14 -13.51 -14 -0.41 0 -2.57 -0.85 -4.8 -1.9 -10.73 -5 -27.82 -4.59 -34.07 0.83 -8.45 7.33 -15.17 7.39 -26.88 0.25 -4.05 -2.47 -5.72 -2.5 -14.4 -0.26 -2.36 0.61 -5.06 1.51 -6 2.01 -0.94 0.5 -4.64 1.83 -8.22 2.96 -10.32 3.27 -13.98 4.7 -15.23 5.95 -0.64 0.64 -1.71 1.17 -2.38 1.17 -3.82 0 -8.01 9.82 -10.24 24 -1.77 11.21 -4 17.4 -8.46 23.44 -1.24 1.68 -2.81 4.18 -3.48 5.56 -0.68 1.38 -2.54 4.6 -4.14 7.17 -7.32 11.74 -10.72 33.87 -7.2 46.83 4.03 14.82 7.41 21.14 16.09 30.09 5.91 6.09 22.86 15.92 30.04 17.42 1.93 0.4 3.95 1 4.5 1.34 0.55 0.33 1.45 0.7 2 0.82 14.68 3.12 19.68 3.33 37.5 1.57 z m -28.86 -4.81 c -6.25 -1.2 -12.32 -2.63 -13.5 -3.16 -6 -2.73 -9.51 -4.51 -13.14 -6.7 -2.2 -1.33 -5.8 -3.39 -8 -4.58 -5.08 -2.75 -17.37 -15.54 -18.17 -18.91 -0.34 -1.4 -1.53 -4.35 -2.66 -6.55 -7.11 -13.87 -1.74 -39.28 13.93 -65.95 3.92 -6.67 4.8 -9.15 5.51 -15.43 2.46 -21.9 7.67 -32.89 16.4 -34.55 1.1 -0.21 5.23 -1.51 9.17 -2.89 13.78 -4.83 21.91 -4.94 31.25 -0.45 3.53 1.7 7.13 3.01 8 2.91 0.87 -0.1 2.82 -0.17 4.33 -0.15 1.51 0.02 2.75 -0.43 2.75 -0.99 0 -0.56 0.72 -1.02 1.6 -1.02 0.88 0 2.79 -0.65 4.25 -1.45 10.17 -5.55 23.86 -6.92 32.15 -3.23 1.93 0.86 4.64 1.79 6.04 2.08 12.29 2.55 22.96 22.69 22.96 43.34 0 12.32 1.8 23.98 4.52 29.26 0.71 1.38 2.39 5.2 3.74 8.5 2.28 5.58 3.17 8.88 5.73 21.25 5.42 26.18 -18.15 55.33 -46.98 58.13 -38.55 3.74 -52.63 3.85 -69.86 0.53 z m 44.86 -1 c 2.48 -0.24 9.9 -0.88 16.5 -1.41 24.97 -2.02 34.2 -6.91 45.9 -24.3 10.16 -15.1 10.33 -29.77 0.63 -54.2 -6.14 -15.47 -7.07 -20.08 -7.31 -36.34 -0.15 -10.45 -0.6 -15.44 -1.47 -16.31 -0.69 -0.69 -1.25 -2.11 -1.25 -3.17 0 -5.31 -10.48 -18.36 -16.81 -20.93 -16.67 -6.75 -24.6 -6.57 -41.18 0.96 -6.9 3.13 -12.93 2.81 -21.8 -1.19 -8.51 -3.84 -24.32 -1.63 -40.73 5.68 -4.45 1.98 -9.84 16.99 -11.41 31.8 -0.86 8.11 -1.23 9.04 -7.98 20.24 -3.89 6.46 -7.08 12.08 -7.09 12.5 -0 0.42 -0.69 2.06 -1.52 3.65 -10.82 20.74 -4.18 54.15 12.73 64.05 1.81 1.06 3.74 2.49 4.29 3.19 6.13 7.71 31.01 15.37 52 16.01 7.15 0.22 14.35 0.54 16 0.71 1.65 0.17 3.67 0.13 4.5 -0.1 0.82 -0.23 3.52 -0.61 6 -0.85 z m -25.23 -3.55 c -0.57 -0.35 -3.95 -0.69 -7.51 -0.74 -3.56 -0.05 -8.33 -0.59 -10.61 -1.18 -5.2 -1.36 -12.52 -3.71 -15.15 -4.85 -1.1 -0.48 -4.06 -1.6 -6.58 -2.49 -12.83 -4.55 -24.2 -16.58 -29.32 -31.03 -3.66 -10.34 -2.09 -28.54 3.42 -39.56 1.51 -3.02 5.28 -10.56 8.36 -16.73 3.09 -6.18 5.61 -11.95 5.61 -12.82 0 -0.87 0.43 -2.39 0.96 -3.38 0.53 -0.99 1.67 -5.2 2.52 -9.36 1.57 -7.61 6.47 -20.75 8.77 -23.52 5.42 -6.53 28.58 -9.02 42.67 -4.59 10.43 3.28 17.22 2.24 28.37 -4.35 21.58 -12.75 46.5 12.17 47.13 47.13 0.22 11.9 0.31 12.36 5.42 26.12 14.48 38.99 8.81 61.4 -18.74 74.12 -4.19 1.93 -9.41 4.5 -11.61 5.7 -3.96 2.17 -12.2 2.68 -31.5 1.95 -2.48 -0.09 -8.26 -0.08 -12.85 0.03 -4.59 0.11 -8.81 -0.09 -9.39 -0.44 z m 55.02 -4.87 c 18.01 -8.86 20.22 -10.19 23.78 -14.35 12.13 -14.15 14.1 -30.79 6.25 -52.64 -8.99 -25 -9 -25.03 -8.97 -35.5 0.03 -9.95 -1.33 -21.09 -2.81 -23 -0.43 -0.55 -1.09 -2.32 -1.47 -3.92 -3.03 -12.65 -29.13 -24.53 -39.4 -17.93 -1.28 0.82 -3.25 1.67 -4.38 1.89 -1.13 0.22 -3.81 1.31 -5.96 2.43 -4.24 2.21 -11.73 2.7 -14.95 0.97 -7.41 -3.97 -32.19 -4.18 -38.5 -0.33 -4.99 3.05 -14.16 15.58 -13.4 19.89 0.23 1.29 2.19 -1.02 3.57 -4.31 6.25 -14.98 30.81 -22.44 46.67 -14.18 5.4 2.81 9.17 2.73 16.48 -0.37 3.42 -1.45 7.82 -2.64 9.78 -2.64 1.96 0 5.18 -0.68 7.15 -1.5 18.26 -7.63 37.23 18.18 35.26 48 -0.55 8.32 -0.39 9.45 2.12 15 10.02 22.19 11.2 41.21 3.44 55.5 -0.75 1.38 -2.5 4.77 -3.89 7.54 -2.76 5.5 -5.7 8.58 -12.59 13.17 -4.56 3.04 -7.44 3.87 -17.12 4.91 -2.96 0.32 -7.63 0.94 -10.38 1.39 -5.71 0.93 -23.87 -0.38 -36.71 -2.65 -4.79 -0.84 -9.11 -1.29 -9.61 -0.98 -0.49 0.31 -2.43 0.11 -4.29 -0.44 -1.87 -0.55 -5.97 -1.18 -9.13 -1.39 -5.64 -0.39 -12.69 -3.69 -19.92 -7.68 -1.56 -0.86 -3.36 -1.83 -4.22 -1.87 -19 -0.85 -24.89 -54.72 -7.16 -68.45 0.73 -0.56 2.07 -3.3 3.02 -6.05 0.95 -2.75 2.09 -5.9 2.54 -7 2.02 -4.99 5.87 -23.5 4.88 -23.5 -0.45 0 -1.1 1.69 -1.45 3.75 -2.38 14.07 -3.95 18.16 -12.61 32.75 -18.3 30.83 -9.87 64.33 19.16 76.13 3.58 1.45 7.86 3.23 9.53 3.95 4.56 1.97 17.57 5.28 20.97 5.33 20.65 0.31 39.7 0.97 40.12 1.39 1.98 1.98 17.82 -0.18 24.17 -3.3 z m -16.59 -2.87 c 1.28 -0.49 4.8 -1.15 7.82 -1.46 3.01 -0.31 7.05 -0.88 8.98 -1.26 4.08 -0.8 13.85 -7.31 15.94 -10.61 13.03 -20.6 14.47 -40.36 4.45 -61.28 -4.14 -8.66 -5.67 -15.12 -4.2 -17.86 6.64 -12.41 -5.53 -39.9 -20.89 -47.19 l -5.2 -2.47 -4.8 1.87 c -2.64 1.03 -7.25 2.18 -10.24 2.57 -2.99 0.38 -5.92 1 -6.5 1.36 -0.58 0.36 -1.51 0.75 -2.06 0.86 -0.55 0.11 -3.19 0.88 -5.87 1.72 -4.77 1.48 -4.96 1.46 -9 -1.1 -3.71 -2.35 -5.22 -2.64 -14.82 -2.84 -5.88 -0.12 -11.1 -0.48 -11.59 -0.78 -1.46 -0.9 -7.64 1.18 -9.98 3.36 -1.18 1.1 -2.53 2.01 -2.99 2.01 -2.8 0 -8.17 12.92 -11.24 27 -3.91 17.98 -4.45 19.53 -9.97 28.5 -13.82 22.46 -14.27 44.27 -1.17 57.1 5.34 5.23 6.77 6.4 7.88 6.4 0.6 0 4.39 1.77 8.42 3.93 5.21 2.79 9.5 4.25 14.83 5.05 17.14 2.56 29.97 4.14 37.48 4.63 4.39 0.29 8.18 0.72 8.42 0.95 0.81 0.81 13.95 0.44 16.31 -0.45 z m 15.57 -11.67 c -1.12 -1.12 0.5 -4.39 2.48 -5.02 13.78 -4.37 22.71 -41.45 12.45 -51.71 -1.19 -1.19 -2.25 -2.79 -2.37 -3.57 -0.49 -3.36 -2.27 -3.38 -3.89 -0.04 -1.74 3.59 -7.22 7.81 -9.25 7.13 -1.62 -0.54 -1.54 -3.89 0.12 -4.53 7.69 -2.95 12.4 -30.48 7.79 -45.44 -7.18 -23.29 -32.34 -21.79 -29.28 1.75 2.91 22.41 -2.36 33.62 -16.33 34.78 -12.61 1.05 -20.2 -7.84 -20.99 -24.6 -0.86 -18.04 -2.17 -20.68 -12.51 -25.17 -3.7 -1.6 -14.69 3.84 -15.63 7.74 -0.36 1.5 -1.3 4 -2.08 5.56 -2.12 4.2 -2.08 19.82 0.06 23.09 0.91 1.38 1.65 3.06 1.65 3.74 0 1.86 3.91 9.53 5.55 10.89 1.91 1.59 1.86 5.86 -0.09 6.61 -1.99 0.76 -5.37 -2.28 -7.11 -6.4 -2.13 -5.04 -7.47 -1.49 -13.92 9.25 -8.91 14.85 -6.12 30.94 7.61 43.94 5.12 4.85 5.58 6.14 2.79 7.89 -1.99 1.25 -4.93 -0.92 -10.57 -7.84 -13.09 -16.03 -13.63 -32.92 -1.65 -51.08 5.02 -7.61 7.07 -13.8 8.42 -25.42 2.07 -17.86 8.49 -28.72 13.27 -31.2 11.11 -5.77 1.73 -0.96 2.29 -1.36 1.08 -0.76 13.05 -5.33 23.74 -2.53 0.82 0.04 7.88 2.67 9.97 4.59 4.73 4.35 6.4 4.36 11.98 0.11 2.94 -2.24 5.92 -3.56 8.83 -3.89 2.41 -0.28 6.41 -1.04 8.89 -1.7 19.25 -5.11 30.59 8.93 31.9 39.48 l 0.68 16 3.52 5.5 c 9.77 15.25 8.55 38.75 -2.9 55.96 -3.1 4.66 -13.3 9.6 -15.43 7.48 z m -46.42 -76.89 c 4.14 -3.84 3.62 -6.97 -1.04 -6.21 -5.42 0.88 -7.79 3.53 -5.75 6.44 2 2.85 3.52 2.8 6.8 -0.23 z m 22.05 -2.99 c 2.47 -5.2 2.08 -6.05 -3.44 -7.46 -8.61 -2.21 -11.01 3 -4.36 9.46 4.05 3.93 5.11 3.66 7.79 -1.99 z m -21.47 -8.39 c 6.13 -4.49 3.07 -7.2 -5.13 -4.54 -6.49 2.1 -7.16 3.13 -5.32 8.15 0.54 1.46 6.18 -0.49 10.45 -3.61 z m 23.06 -4.12 c 0 -5.52 -7.49 -10.34 -11.87 -7.63 -2.72 1.68 0.66 7.17 5.24 8.5 5.08 1.47 6.62 1.27 6.62 -0.87 z m -31.24 -3.05 c 0.96 -0.55 2.98 -1.44 4.5 -1.98 3.28 -1.16 5.37 -5.55 3.63 -7.64 -3.3 -3.98 -10.9 1.09 -10.9 7.27 0 3.67 0.2 3.83 2.76 2.35 z m 29.51 -11.25 c 0.26 -2.34 0.81 -5.26 1.22 -6.5 0.85 -2.59 -0.04 -2.78 -5.65 -1.22 -5.65 1.57 -5.83 5.65 -0.45 10.15 3.26 2.73 4.36 2.18 4.88 -2.43 z m -28.8 -3.95 c 1.09 -2.02 1.68 -3.97 1.33 -4.33 -1.26 -1.26 -4.72 0.67 -6.07 3.38 -3.03 6.06 1.51 6.98 4.75 0.95 z m -37.94 79.26 c -1.94 -3.14 17.49 -9.69 25.46 -8.58 5.71 0.8 16.79 4.37 17.59 5.67 1.17 1.89 -0.2 1.75 -6.92 -0.69 -8.35 -3.03 -14.56 -3.35 -11.22 -0.62 1.04 0.86 0.21 2.69 -0.86 4.16 -1.16 1.6 -6.21 0.51 -4.96 -2.58 1.88 -4.66 -7.09 -3.1 -12.4 0.6 -4.56 3.18 -5.76 3.54 -6.69 2.04 z m 52.82 -1.57 c -0.74 -1.92 -1.06 -1.62 5.78 -5.31 7.24 -3.9 20.51 -4.01 30.23 -0.25 4.29 1.66 7.57 4.55 6.73 5.92 -0.53 0.85 -1.53 0.51 -3.52 -1.2 -5.93 -5.1 -19.05 -6.56 -16.87 -2.77 3.31 5.75 -7.88 5.71 -6.39 1.44 1.57 -4.5 -3.73 -4.25 -10.22 0.21 -4.26 2.93 -5.23 3.26 -5.74 1.96 z M 22.84 168.74 c 0.86 -4.45 6.56 -18.81 8.63 -21.78 1.02 -1.46 1.86 -3.14 1.86 -3.73 0 -0.59 3.16 -4.29 7.03 -8.21 9.66 -9.82 18.97 -27.85 18.97 -36.75 0 -1.55 0.85 -5.49 1.89 -8.74 1.04 -3.25 2.44 -8.39 3.11 -11.42 3.06 -13.75 13.33 -25.61 26.37 -30.45 2.68 -0.99 8.75 -3.8 13.5 -6.23 8.48 -4.35 8.79 -4.42 17.63 -4.23 4.95 0.11 10.67 -0.14 12.71 -0.55 2.96 -0.59 4.23 -0.34 6.26 1.26 5.49 4.32 22.14 3.58 29.03 -1.29 3.48 -2.46 10.88 -4.51 16.31 -4.51 2.08 0 4.27 -0.48 4.85 -1.07 1.14 -1.14 6.32 -0.37 16.1 2.4 9.05 2.57 19.19 10.57 26.81 21.17 1.58 2.2 4.86 6.25 7.29 9 9.92 11.25 19.09 35.06 18.98 49.29 -0.02 2.74 0.46 5.92 1.07 7.06 0.61 1.14 1.27 3.43 1.46 5.08 0.35 2.98 0.81 3.77 6.7 11.57 5.1 6.74 8.92 12.83 8.92 14.19 0 0.72 1.29 4.12 2.87 7.55 1.58 3.44 3.23 7.15 3.66 8.25 0.63 1.6 0.94 1.11 1.55 -2.5 2.16 -12.74 0.41 -19.8 -7.63 -30.9 -1.36 -1.87 -2.93 -5.25 -3.5 -7.5 -0.57 -2.25 -1.73 -6.12 -2.57 -8.6 -2.98 -8.7 -6.51 -21.56 -7.37 -26.82 -2.68 -16.42 -21.48 -41.77 -39.66 -53.5 -15.68 -10.11 -29.52 -15.61 -36.36 -14.44 -2.48 0.42 -6.53 1.03 -9 1.35 -2.48 0.32 -6.3 1.41 -8.5 2.42 -9.21 4.23 -22.91 5.09 -31.09 1.95 -8.72 -3.35 -27.92 -4.7 -33.91 -2.38 -28.05 10.86 -52.21 38.3 -55 62.48 -1.61 13.92 -10.42 30.89 -21.61 41.64 -12.99 12.47 -14.67 19.02 -10.7 41.81 1.32 7.56 1.29 7.59 3.32 -2.88 z M 286.33 134.22 c -1.86 -16.28 -8.24 -35.88 -16.49 -50.63 -3.61 -6.45 -15.17 -22.48 -16.22 -22.48 -0.3 0 0.57 1.46 1.93 3.25 1.36 1.79 3.7 5.72 5.2 8.75 1.5 3.02 3.15 6.3 3.67 7.28 0.52 0.98 1.58 4.8 2.37 8.5 3.02 14.3 10.89 39.86 13.28 43.14 1.03 1.42 2.94 4.48 4.24 6.81 3.04 5.46 3.14 5.23 2.02 -4.63 z M 38.02 117.62 c 6.87 -10.27 10.26 -18.8 12.23 -30.71 3.16 -19.13 21.44 -44.41 40.19 -55.59 5.56 -3.32 4.8 -3.81 -0.87 -0.57 -13.42 7.68 -22.55 14.6 -32.88 24.94 -11.64 11.65 -12.66 13.37 -13.83 23.24 -0.57 4.82 -5.52 20.11 -8.96 27.68 -5.62 12.35 -6.88 14.45 -10.08 16.63 -4.05 2.77 -4.29 3.26 -5.16 10.62 l -0.66 5.58 8 -7.91 c 4.4 -4.35 9.81 -10.61 12.01 -13.91 z m -13.64 2.44 c 3.12 -3.12 11.16 -21.22 14.41 -32.44 0.96 -3.3 2.07 -7.12 2.48 -8.5 3.77 -12.68 -8.16 5.87 -14.34 22.31 -6.22 16.53 -7.13 23.21 -2.55 18.63 z M 168.32 25.12 c 4.57 -1.65 9.34 -3 10.59 -3 2.61 0 7.91 -1.83 7.24 -2.5 -3.64 -3.64 -44.47 -5.02 -58.92 -1.99 -16.76 3.51 -19.31 5.66 -6.41 5.39 6.17 -0.13 13.54 0.99 21.58 3.29 8.7 2.49 16.76 2.12 25.92 -1.19 z" inkscape:connector-curvature="0" class="style0"/></svg>
